<svg width="37" height="36" viewBox="0 0 37 36" fill="none" xmlns="http://www.w3.org/2000/svg">
<rect width="37" height="36" rx="18" fill="#FFF0E3"/>
<path d="M18.6122 18.3644L28.4075 27.4707L27.7184 10.9527C27.6067 8.43872 25.4279 9.01601 23.845 9.9285C22.2621 10.9527 20.4185 10.9527 18.5004 10.2823C16.5637 10.9527 14.7387 10.9527 13.1558 9.9285C11.5729 9.01601 9.39414 8.43872 9.28241 10.9527L8.59338 27.4707L18.6122 18.3644Z" fill="#FFF0E3"/>
<path fill-rule="evenodd" clip-rule="evenodd" d="M10.6602 9.06295C11.4459 9.00493 12.407 9.38973 13.2018 9.84795L13.206 9.85034L13.2059 9.85044C14.7571 10.8542 16.55 10.8589 18.4696 10.1945L18.5391 10.1704L18.5307 10.1946C20.4314 10.8589 22.2428 10.8542 23.7941 9.85044L23.7981 9.84784L23.7982 9.84795C24.593 9.38973 25.5541 9.00493 26.3398 9.06295C26.7368 9.09227 27.0945 9.2352 27.3588 9.54322C27.6216 9.84952 27.7824 10.3077 27.8109 10.9486L27.8109 10.9488L28.4999 27.4668C28.5015 27.5044 28.4802 27.5393 28.4459 27.5551C28.4117 27.5709 28.3713 27.5644 28.3437 27.5387L18.611 18.4906L8.65549 27.5394C8.62774 27.5647 8.58756 27.5707 8.55359 27.5549C8.51962 27.539 8.49852 27.5042 8.50008 27.4668L9.1891 10.9488L9.18911 10.9486C9.2176 10.3077 9.37835 9.84952 9.6412 9.54322C9.90554 9.2352 10.2632 9.09227 10.6602 9.06295ZM9.37486 10.9567C9.37486 10.9567 9.37486 10.9568 9.37485 10.9568L8.69512 27.2522L18.5492 18.2956C18.585 18.2631 18.6396 18.2634 18.675 18.2963L28.3047 27.2486L27.6251 10.9568C27.5978 10.3407 27.4443 9.92831 27.2177 9.6643C26.9926 9.40202 26.6857 9.27493 26.3261 9.24837C25.5994 9.19471 24.6806 9.55413 23.8931 10.0078C22.2875 11.0457 20.4237 11.0463 18.4999 10.3807C16.5581 11.0462 14.7126 11.0458 13.1069 10.0078C12.3194 9.55413 11.4006 9.19471 10.6739 9.24837C10.3143 9.27493 10.0074 9.40202 9.7823 9.6643C9.55575 9.92829 9.40226 10.3407 9.37486 10.9567Z" fill="#FFF0E3"/>
<path d="M10.4184 10.3754L9.72934 26.4464L8.59338 27.4706L9.28241 10.9527C9.63623 10.692 10.0087 10.5058 10.4184 10.3754ZM11.7964 11.53L11.2191 24.9566L10.0832 26.1298L10.7722 10.6175C10.9957 10.841 11.6661 11.3996 11.7964 11.53ZM13.0441 12.5542L12.5972 23.7648L11.6661 24.6587L12.2433 11.8838C12.4668 12.0886 12.9137 12.4238 13.0441 12.5542ZM14.4035 13.1315L13.9566 22.6847L13.0441 23.411L13.491 12.7777C13.7145 12.8894 14.1614 13.1315 14.4035 13.1315ZM15.6512 13.1315L15.3346 21.0832L14.4035 21.9957L14.7574 13.2246C14.9622 13.2246 15.5581 13.2246 15.6512 13.1315Z" fill="#282828"/>
<path d="M26.5822 10.3754L27.2712 26.4464L28.4072 27.4706L27.7182 10.9527C27.3644 10.692 26.9919 10.5058 26.5822 10.3754ZM25.2042 11.53L25.7815 24.9566L26.9174 26.1298L26.2284 10.6175C26.0049 10.841 25.3345 11.3996 25.2042 11.53ZM23.9565 12.5542L24.4034 23.7648L25.3345 24.6587L24.7572 11.8838C24.5338 12.0886 24.0868 12.4238 23.9565 12.5542ZM22.5971 13.1315L23.044 22.6847L23.9565 23.411L23.5095 12.7777C23.2861 12.8894 22.8391 13.1315 22.5971 13.1315ZM21.3494 13.1315L21.6659 21.0832L22.5971 21.9957L22.2432 13.2246C22.0384 13.2246 21.4425 13.2246 21.3494 13.1315Z" fill="#282828"/>
<path d="M18.9653 20.1707L20.3248 26.4464L19.8778 26.8933L19.3937 26.5395L18.6301 20.9528L18.9653 26.5395L18.4998 27.1168L18.0529 26.5395L18.3881 20.9528L17.6059 26.5395L17.1217 26.8933L16.6748 26.4464L18.0342 20.1893H18.9653V20.1707Z" fill="#282828"/>
<path fill-rule="evenodd" clip-rule="evenodd" d="M17.9709 20.1106H18.9654V20.1623L19.0423 20.154L20.4108 26.4717L19.8859 26.9966L19.2814 26.5548L19.3158 26.5501L18.8328 23.0162L19.0482 26.6063L19.0266 26.5889L18.4986 27.2437L17.9486 26.5332L17.9744 26.5348L18.1906 22.9307L17.6726 26.6307L17.6524 26.603L17.1138 26.9966L16.5889 26.4716L17.9709 20.1106ZM18.906 20.268H18.0977L16.7608 26.4211L17.1298 26.7901L17.5327 26.4956L18.3102 20.9419L18.4666 20.9575L18.1332 26.5147L18.5011 26.9899L18.885 26.5138L18.5517 20.9575L18.7081 20.9422L19.4671 26.4957L19.8699 26.7901L20.2389 26.4211L18.906 20.268Z" fill="#282828"/>
<path d="M15.4274 17.4332L12.6899 27.1168L16.4516 27.6755L18.0345 20.3942L15.4274 17.4332Z" fill="#FFF0E3"/>
<path fill-rule="evenodd" clip-rule="evenodd" d="M15.4089 17.3496C15.4395 17.3426 15.4715 17.3529 15.4923 17.3765L18.0994 20.3375C18.1174 20.3579 18.1247 20.3858 18.1189 20.4124L16.536 27.6937C16.5264 27.7379 16.4842 27.767 16.4395 27.7604L12.6778 27.2017C12.6534 27.1981 12.6318 27.1841 12.6184 27.1634C12.605 27.1427 12.6011 27.1172 12.6079 27.0935L15.3453 17.4099C15.3539 17.3797 15.3783 17.3565 15.4089 17.3496ZM15.4676 17.6082L12.7995 27.0463L16.3853 27.5788L17.9419 20.4183L15.4676 17.6082Z" fill="#282828"/>
<path fill-rule="evenodd" clip-rule="evenodd" d="M16.6836 19.9216L14.9145 21.5976C14.8924 21.6185 14.8615 21.6273 14.8318 21.6212C14.802 21.615 14.7771 21.5947 14.7651 21.5668L14.4299 20.7846L14.6008 20.7114L14.8835 21.3709L16.5558 19.7867L16.6836 19.9216Z" fill="#282828"/>
<path fill-rule="evenodd" clip-rule="evenodd" d="M16.0425 22.229L15.6701 18.7467L15.855 18.7269L16.2023 21.9745L17.1779 20.6736L17.3267 20.7851L16.9113 21.3389L17.3702 22.9378L17.5845 22.6147L17.7395 22.7175L17.4375 23.1726L17.5093 23.4226L17.3305 23.4739L17.3025 23.3762L16.4994 24.5868L16.8962 26.4268L16.7145 26.466L16.352 24.7853L15.6171 25.9197C15.5976 25.9498 15.5625 25.966 15.5269 25.9613C15.4914 25.9566 15.4617 25.9319 15.4506 25.8978L15.066 24.712L14.3521 25.8803C14.3327 25.912 14.2965 25.9291 14.2598 25.9239C14.2231 25.9188 14.193 25.8923 14.1831 25.8566L13.5872 23.6964C13.5785 23.6647 13.5871 23.6306 13.6101 23.607L14.7833 22.3965C14.8065 22.3725 14.8409 22.3629 14.8732 22.3712C14.9056 22.3796 14.931 22.4046 14.9397 22.4369L15.2439 23.5573L15.9862 22.5729C16.0085 22.5433 16.0463 22.5298 16.0823 22.5385C16.1183 22.5471 16.1457 22.5764 16.152 22.6128L16.451 24.3235L17.2351 23.1414L16.7714 21.5255L16.2093 22.2749C16.1864 22.3055 16.1471 22.3189 16.1103 22.3088C16.0735 22.2987 16.0466 22.267 16.0425 22.229ZM16.2978 24.527L16.0058 22.8558L15.2781 23.8208C15.2567 23.8491 15.2211 23.8628 15.1862 23.8561C15.1514 23.8494 15.1234 23.8234 15.1141 23.7892L14.8031 22.6432L13.7806 23.6982L14.3053 25.6003L15.0128 24.4426C15.0317 24.4116 15.067 24.3945 15.103 24.3987C15.1391 24.403 15.1693 24.4279 15.1805 24.4624L15.5672 25.6547L16.2978 24.527Z" fill="#282828"/>
<path fill-rule="evenodd" clip-rule="evenodd" d="M14.2697 25.7402C14.3047 25.7461 14.3332 25.7715 14.3433 25.8055L14.7673 27.2406L15.3475 26.2684C15.3662 26.2371 15.4015 26.2196 15.4378 26.2236C15.474 26.2277 15.5045 26.2526 15.5158 26.2873L15.9627 27.6654L15.7859 27.7228L15.4021 26.5397L14.8182 27.5182C14.7992 27.55 14.7633 27.5675 14.7267 27.5628C14.6901 27.5582 14.6596 27.5324 14.6492 27.4969L14.2188 26.0402L13.5661 26.9476L13.4152 26.839L14.1787 25.7776C14.1994 25.7488 14.2347 25.7343 14.2697 25.7402Z" fill="#282828"/>
<path d="M21.5726 17.4332L24.31 27.1168L20.5483 27.6755L18.9655 20.3942L21.5726 17.4332Z" fill="#FFF0E3"/>
<path fill-rule="evenodd" clip-rule="evenodd" d="M21.5919 17.3496C21.6226 17.3565 21.647 17.3797 21.6555 17.4099L24.393 27.0935C24.3997 27.1172 24.3959 27.1427 24.3825 27.1634C24.3691 27.1841 24.3474 27.1981 24.323 27.2017L20.5613 27.7604C20.5166 27.767 20.4745 27.7379 20.4649 27.6937L18.882 20.4124C18.8762 20.3858 18.8834 20.3579 18.9014 20.3375L21.5085 17.3765C21.5293 17.3529 21.5613 17.3426 21.5919 17.3496ZM19.0589 20.4183L20.6155 27.5788L24.2013 27.0463L21.5332 17.6082L19.0589 20.4183Z" fill="#282828"/>
<path fill-rule="evenodd" clip-rule="evenodd" d="M22.117 21.3709L20.4448 19.7867L20.3169 19.9216L22.086 21.5976C22.1081 21.6185 22.139 21.6273 22.1688 21.6212C22.1985 21.615 22.2234 21.5947 22.2354 21.5668L22.5706 20.7846L22.3997 20.7114L22.117 21.3709Z" fill="#282828"/>
<path fill-rule="evenodd" clip-rule="evenodd" d="M20.7974 21.9745L21.1448 18.7269L21.3296 18.7467L20.9572 22.229C20.9531 22.267 20.9262 22.2987 20.8894 22.3088C20.8526 22.3189 20.8133 22.3055 20.7904 22.2749L20.2283 21.5255L19.7646 23.1414L20.5487 24.3235L20.8477 22.6128C20.854 22.5764 20.8815 22.5471 20.9175 22.5385C20.9534 22.5298 20.9912 22.5433 21.0135 22.5729L21.7558 23.5573L22.06 22.4369C22.0687 22.4046 22.0941 22.3796 22.1265 22.3712C22.1588 22.3629 22.1932 22.3725 22.2164 22.3965L23.3896 23.607C23.4126 23.6306 23.4213 23.6647 23.4125 23.6964L22.8166 25.8566C22.8067 25.8923 22.7766 25.9188 22.7399 25.9239C22.7032 25.9291 22.667 25.912 22.6477 25.8803L21.9337 24.712L21.5491 25.8978C21.538 25.9319 21.5083 25.9566 21.4728 25.9613C21.4372 25.966 21.4021 25.9498 21.3826 25.9197L20.6477 24.7853L20.2852 26.466L20.1035 26.4268L20.5003 24.5868L19.6972 23.3762L19.6692 23.4739L19.4905 23.4226L19.5622 23.1726L19.2603 22.7175L19.4152 22.6147L19.6296 22.9378L20.0884 21.3389L19.673 20.7851L19.8218 20.6736L20.7974 21.9745ZM20.7019 24.527L21.4325 25.6547L21.8192 24.4624C21.8304 24.4279 21.8606 24.403 21.8967 24.3987C21.9328 24.3945 21.968 24.4116 21.9869 24.4426L22.6944 25.6003L23.2191 23.6982L22.1966 22.6432L21.8856 23.7892C21.8763 23.8234 21.8483 23.8494 21.8135 23.8561C21.7786 23.8628 21.743 23.8491 21.7216 23.8208L20.9939 22.8558L20.7019 24.527Z" fill="#282828"/>
<path fill-rule="evenodd" clip-rule="evenodd" d="M22.7307 25.7402C22.7657 25.7343 22.801 25.7488 22.8218 25.7776L23.5853 26.839L23.4343 26.9476L22.7817 26.0402L22.3513 27.4969C22.3408 27.5324 22.3104 27.5582 22.2737 27.5628C22.2371 27.5675 22.2012 27.55 22.1823 27.5182L21.5983 26.5397L21.2146 27.7228L21.0377 27.6654L21.4847 26.2873C21.4959 26.2526 21.5264 26.2277 21.5627 26.2236C21.5989 26.2196 21.6342 26.2371 21.6529 26.2684L22.2331 27.2406L22.6571 25.8055C22.6672 25.7715 22.6957 25.7461 22.7307 25.7402Z" fill="#282828"/>
<path d="M18.5002 31.4371C21.368 31.4371 24.0868 31.2136 25.6884 30.7667C26.3588 30.6364 26.3588 30.3011 26.3588 29.8356C27.0292 29.6121 26.694 28.8114 27.1595 28.8114C26.6753 28.9603 26.6009 28.0292 26.0236 28.141C26.0236 27.3402 25.2042 27.2471 24.5338 27.4706C23.1744 27.9175 20.7721 28.0292 18.5002 28.0292C16.2096 27.9175 13.8446 27.9175 12.4666 27.4519C11.7962 27.2471 10.9954 27.3402 10.9954 28.141C10.4181 28.0292 10.325 28.9417 9.84082 28.8114C10.325 28.8114 9.97117 29.6307 10.6416 29.8356C10.6416 30.3011 10.6416 30.6364 11.3306 30.7667C12.9135 31.2136 15.651 31.4371 18.5002 31.4371Z" fill="#FFF0E3"/>
<path fill-rule="evenodd" clip-rule="evenodd" d="M11.4237 27.2571C11.7547 27.1431 12.1625 27.1796 12.5167 27.2878L12.5215 27.2893L12.5215 27.2894C13.1878 27.5145 14.1043 27.63 15.1529 27.7021C15.8119 27.7474 16.5132 27.775 17.2293 27.8033C17.651 27.82 18.0779 27.8368 18.5043 27.8576C19.6367 27.8575 20.7987 27.8296 21.8456 27.7464C22.8964 27.6629 23.8204 27.5245 24.4802 27.3075L24.5338 27.4706L24.4795 27.3078C24.8353 27.1891 25.248 27.1477 25.584 27.2587C25.7549 27.3152 25.9106 27.4131 26.023 27.5648C26.1055 27.6762 26.1594 27.8097 26.1825 27.9635C26.2952 27.9758 26.3929 28.0196 26.4771 28.0805C26.5969 28.1671 26.69 28.2895 26.7634 28.3867L26.7657 28.3897C26.8457 28.4955 26.9026 28.5709 26.9635 28.6177C26.9897 28.6378 27.013 28.6501 27.0381 28.6543C27.0768 28.6444 27.1174 28.6397 27.1595 28.6397C27.2445 28.6397 27.3166 28.7019 27.3292 28.7858C27.3419 28.8698 27.2912 28.9504 27.21 28.9754C27.1728 28.9868 27.1369 28.9939 27.1023 28.9972C27.0969 29.0018 27.0899 29.0099 27.0816 29.0246C27.0557 29.0703 27.0399 29.1329 27.0148 29.2326C27.0109 29.2482 27.0067 29.2646 27.0023 29.2821C26.9728 29.3977 26.9318 29.5433 26.8446 29.6757C26.7723 29.7854 26.6716 29.8816 26.5302 29.9507C26.5285 30.1389 26.516 30.3384 26.4266 30.5071C26.3093 30.7288 26.0845 30.8634 25.728 30.9338C24.1021 31.3861 21.3673 31.6087 18.5002 31.6087C15.6523 31.6087 12.899 31.3862 11.2912 30.9339C10.9272 30.8638 10.6975 30.7303 10.577 30.5089C10.4852 30.3403 10.472 30.1409 10.4702 29.9533C10.3293 29.8872 10.2291 29.7923 10.1578 29.6827C10.0717 29.5503 10.0327 29.403 10.0046 29.2871C10.001 29.2725 9.99768 29.2585 9.99448 29.2452C9.96924 29.1402 9.95348 29.0746 9.92665 29.0273C9.91522 29.0071 9.90592 28.9989 9.89928 28.9947C9.89898 28.9945 9.89868 28.9943 9.89838 28.9941C9.89197 28.9903 9.87644 28.983 9.84082 28.983V28.8114L9.88544 28.6456C9.90958 28.6521 9.93102 28.6541 9.95158 28.6512C9.9811 28.6472 10.0088 28.6334 10.0402 28.6094C10.1028 28.5617 10.1612 28.4876 10.2408 28.3866C10.2433 28.3834 10.2459 28.3802 10.2484 28.3769C10.3244 28.2805 10.42 28.1606 10.5415 28.076C10.6264 28.017 10.7242 27.9748 10.8363 27.9631C10.8588 27.8101 10.9114 27.6773 10.992 27.566C11.1021 27.414 11.2551 27.3151 11.4237 27.2571ZM26.7622 28.8958C26.7596 28.8938 26.757 28.8919 26.7544 28.8899C26.6553 28.8137 26.5723 28.7035 26.5048 28.6139C26.4997 28.607 26.4946 28.6002 26.4895 28.5936C26.4117 28.4906 26.3476 28.4104 26.2759 28.3586C26.2132 28.3132 26.1477 28.2917 26.0562 28.3095C26.0059 28.3192 25.9539 28.306 25.9143 28.2734C25.8748 28.2407 25.8519 28.1922 25.8519 28.141C25.8519 27.971 25.8089 27.8525 25.7472 27.7691C25.6849 27.6852 25.5939 27.6236 25.4762 27.5846C25.2348 27.5048 24.9026 27.5285 24.5881 27.6334L24.5874 27.6336C23.8878 27.8636 22.9309 28.0045 21.8728 28.0886C20.812 28.1729 19.6384 28.2009 18.5002 28.2009H18.4918L18.4918 28.2007C18.0713 28.1801 17.6461 28.1633 17.2241 28.1467C16.5036 28.1182 15.7924 28.0901 15.1294 28.0445C14.0796 27.9723 13.1255 27.8553 12.4141 27.6154C12.0986 27.5194 11.7718 27.5003 11.5354 27.5816C11.42 27.6214 11.331 27.6831 11.27 27.7673C11.2093 27.8512 11.167 27.9702 11.167 28.141C11.167 28.1922 11.1441 28.2407 11.1046 28.2734C11.0651 28.306 11.0131 28.3192 10.9628 28.3095C10.87 28.2915 10.8024 28.3127 10.7375 28.3578C10.6642 28.4088 10.5979 28.488 10.518 28.5894C10.5123 28.5966 10.5065 28.604 10.5006 28.6115C10.4313 28.6998 10.3471 28.807 10.2484 28.8824C10.2459 28.8842 10.2435 28.8861 10.241 28.8879C10.2839 28.9759 10.3086 29.0807 10.3287 29.1664C10.3319 29.1802 10.3351 29.1935 10.3382 29.2062C10.3659 29.3207 10.3944 29.4168 10.4456 29.4956C10.4927 29.568 10.5634 29.6323 10.6917 29.6715C10.7639 29.6935 10.8132 29.7601 10.8132 29.8356C10.8132 30.082 10.8175 30.2327 10.8785 30.3448C10.9294 30.4384 11.0418 30.5374 11.3625 30.5981L11.3774 30.6009L11.3772 30.6015C12.9362 31.0417 15.6538 31.2655 18.5002 31.2655C21.3648 31.2655 24.0643 31.0418 25.6422 30.6014L25.6555 30.5977L25.6556 30.5982C25.9655 30.538 26.0738 30.44 26.1233 30.3465C26.183 30.2337 26.1871 30.0818 26.1871 29.8356C26.1871 29.7617 26.2344 29.6961 26.3045 29.6728C26.4347 29.6294 26.5085 29.562 26.5579 29.4869C26.611 29.4063 26.641 29.3098 26.6697 29.1973C26.6731 29.1838 26.6766 29.1696 26.6802 29.1549C26.7 29.0748 26.7238 28.9784 26.7622 28.8958Z" fill="#282828"/>
<path d="M14.6269 27.1169C15.5394 27.2472 16.5636 27.3403 17.3644 27.2472C17.8299 27.2472 18.1651 28.0294 17.234 28.1411C16.4519 28.2342 15.2042 28.1411 14.5152 28.0294C13.6399 27.8804 12.7647 27.6755 11.8894 27.4521C11.0887 27.1169 11.6659 26.4465 12.1129 26.5396C12.9323 26.8003 13.7703 26.9865 14.6269 27.1169ZM22.3737 27.1169C21.4613 27.2472 20.437 27.3403 19.6549 27.2472C19.1707 27.2472 18.8355 28.0294 19.7666 28.1411C20.5674 28.2342 21.7965 28.1411 22.4855 28.0294C23.0441 27.9176 24.3105 27.6942 25.1112 27.4521C25.912 27.1169 25.3347 26.4465 24.8877 26.5396C24.0684 26.8003 23.2304 26.9865 22.3737 27.1169Z" fill="#FFF0E3"/>
<path fill-rule="evenodd" clip-rule="evenodd" d="M11.9186 27.3637C11.7351 27.2857 11.645 27.195 11.6071 27.1151C11.5699 27.0368 11.5763 26.9549 11.6157 26.8772C11.6559 26.7977 11.7299 26.7252 11.8196 26.678C11.9077 26.6316 12.0038 26.6132 12.089 26.6297C12.9121 26.8913 13.7533 27.0781 14.6124 27.2088L14.6124 27.2088L14.6132 27.2089C15.5247 27.3391 16.5563 27.4337 17.3688 27.3402C17.5502 27.3431 17.7101 27.4998 17.7301 27.6635C17.7395 27.7406 17.7179 27.8195 17.6476 27.8874M17.2224 28.0488C16.4524 28.1404 15.2145 28.0486 14.5298 27.9377C13.6606 27.7897 12.7905 27.5862 11.9186 27.3637M11.733 26.5135C11.8522 26.4507 11.9941 26.42 12.1313 26.4486L12.1407 26.4505L12.1405 26.451C12.9545 26.71 13.7875 26.8952 14.6399 27.0249C15.5511 27.1551 16.5651 27.2465 17.3531 27.1549L17.3638 27.1536V27.1543C17.646 27.1543 17.8837 27.3873 17.9147 27.641C17.9309 27.7734 17.8908 27.911 17.7767 28.0212C17.6649 28.1291 17.4893 28.204 17.2445 28.2334L17.2445 28.2334C16.4503 28.3279 15.1931 28.2336 14.4997 28.1211L14.499 28.121L14.499 28.121C13.6202 27.9714 12.7421 27.7659 11.8659 27.5421L11.8526 27.5388L11.853 27.5378C11.6403 27.4488 11.5038 27.3312 11.4391 27.1948C11.3733 27.0561 11.389 26.9133 11.4498 26.7932C11.5097 26.6749 11.6138 26.5762 11.733 26.5135ZM25.5604 27.1948C25.4957 27.3312 25.3593 27.4488 25.1466 27.5378L25.1377 27.5415L25.1376 27.5411C24.478 27.7405 23.5058 27.9272 22.8704 28.0492C22.7289 28.0764 22.6041 28.1003 22.5032 28.1205L22.4998 28.1212L22.4998 28.1211C21.8063 28.2336 20.5679 28.3279 19.7554 28.2334L19.755 28.2334C19.5103 28.204 19.3346 28.1291 19.2231 28.0211C19.1091 27.9107 19.0696 27.7727 19.0873 27.64C19.1213 27.385 19.3649 27.1543 19.6544 27.1543H19.6654L19.6654 27.1549C20.4345 27.2465 21.4483 27.1551 22.3597 27.0249C23.212 26.8952 24.0451 26.71 24.859 26.451L24.8682 26.4481L24.8683 26.4486C25.0055 26.42 25.1473 26.4507 25.2666 26.5135C25.3858 26.5762 25.4899 26.6749 25.5498 26.7932C25.6105 26.9133 25.6262 27.0561 25.5604 27.1948ZM24.9105 26.6297C24.0874 26.8913 23.2462 27.0781 22.3872 27.2088L22.3864 27.2089C21.4751 27.3391 20.4434 27.4337 19.6492 27.3402C19.4567 27.343 19.2933 27.5019 19.2716 27.6645C19.2614 27.7413 19.2825 27.8198 19.3524 27.8875C19.4247 27.9575 19.5563 28.0223 19.7772 28.0488L19.7661 28.1411L19.7768 28.0488C20.5652 28.1404 21.7835 28.0488 22.4684 27.9379C22.5716 27.9172 22.698 27.893 22.8405 27.8656C23.4754 27.7436 24.4302 27.5602 25.0791 27.3645C25.2639 27.2863 25.3544 27.1952 25.3924 27.1151C25.4296 27.0368 25.4232 26.9549 25.3839 26.8772C25.3437 26.7977 25.2697 26.7252 25.18 26.678C25.0918 26.6316 24.9957 26.6132 24.9105 26.6297Z" fill="#282828"/>
<path d="M11.7779 26.6698C11.0888 26.5394 10.7723 27.3402 10.9957 27.8057C11.0888 27.5636 11.573 27.5636 11.6661 27.3402C11.7965 27.005 11.573 27.005 11.7965 26.6698H11.7779ZM14.5153 28.7741C14.5153 28.3085 14.9623 28.3644 14.9623 27.9175C14.9623 27.694 14.8505 27.3402 14.6271 27.3402C14.4967 27.3402 14.385 27.396 14.3105 27.4891C14.2174 27.5636 14.1801 27.6754 14.1615 27.8057C14.0684 28.234 14.5153 28.3085 14.5153 28.7741ZM17.7742 27.4705C18.4446 27.4705 18.3701 28.3644 18.0536 28.83C18.0536 28.4948 17.4763 28.3644 17.4763 28.1409C17.4763 27.8057 17.9977 27.8057 17.7742 27.4705ZM25.2045 26.6698C25.9121 26.5394 26.2287 27.3402 26.0053 27.8057C25.9121 27.5636 25.428 27.5636 25.3349 27.3402C25.2045 27.005 25.428 27.005 25.2045 26.6698ZM22.5043 28.7555C22.5043 28.2899 22.0387 28.3458 22.0387 27.8988C22.0387 27.6754 22.1691 27.3215 22.3925 27.3215C22.5043 27.3402 22.616 27.3774 22.7091 27.4705C22.7836 27.545 22.8395 27.6568 22.8395 27.7871C22.9512 28.234 22.4856 28.2899 22.4856 28.7555H22.5043ZM19.2081 27.4705C18.5377 27.4705 18.6122 28.3644 18.9288 28.83C18.9288 28.4948 19.5061 28.3644 19.5061 28.1409C19.5061 27.8057 18.9847 27.8057 19.2081 27.4705Z" fill="#FFF0E3"/>
<path fill-rule="evenodd" clip-rule="evenodd" d="M11.7859 26.5768C11.4002 26.5075 11.1156 26.7 10.9633 26.9684C10.8132 27.2331 10.7848 27.582 10.9115 27.8459C10.9276 27.8794 10.962 27.9001 10.999 27.8986C11.0361 27.8971 11.0688 27.8737 11.0821 27.8391C11.0952 27.8048 11.1244 27.7731 11.1756 27.7411C11.2274 27.7086 11.2919 27.6818 11.3653 27.6522C11.3694 27.6505 11.3735 27.6489 11.3776 27.6472C11.4444 27.6203 11.5186 27.5905 11.5819 27.5533C11.6493 27.5137 11.717 27.4588 11.7515 27.3759L11.7516 27.3759L11.7524 27.3739C11.7884 27.2811 11.8015 27.2074 11.8026 27.1427C11.8034 27.0924 11.7965 27.0477 11.7913 27.0138C11.7901 27.006 11.789 26.9988 11.7881 26.9922C11.783 26.9557 11.7815 26.9268 11.7902 26.8904C11.7993 26.8522 11.8212 26.7996 11.8734 26.7213C11.8924 26.6928 11.8942 26.6561 11.878 26.6259C11.8619 26.5957 11.8304 26.5768 11.7961 26.5768H11.7859ZM11.6441 26.7488C11.4052 26.744 11.23 26.8752 11.1251 27.0601C11.0291 27.2293 10.9963 27.437 11.0306 27.6156C11.0457 27.604 11.0612 27.5933 11.0769 27.5835C11.145 27.5409 11.2248 27.5083 11.2957 27.4797C11.2982 27.4788 11.3006 27.4778 11.3031 27.4768C11.3744 27.448 11.4367 27.4229 11.4877 27.393C11.5396 27.3625 11.5673 27.3339 11.5795 27.3053M25.356 26.7486C25.372 26.7836 25.3834 26.8161 25.3908 26.8472C25.4071 26.9155 25.4028 26.9704 25.3963 27.0178C25.3947 27.0288 25.3932 27.039 25.3917 27.0486C25.3868 27.0808 25.3829 27.1065 25.3835 27.1396M25.356 26.7486C25.5951 26.7494 25.7688 26.88 25.8731 27.0607C25.9706 27.2296 26.0037 27.4371 25.9695 27.6156C25.9545 27.6039 25.9389 27.5933 25.9233 27.5835C25.8552 27.5409 25.7753 27.5083 25.7044 27.4797L25.6971 27.4768C25.6257 27.448 25.5634 27.4229 25.5125 27.393C25.4605 27.3625 25.4329 27.3339 25.4206 27.3053M26.0342 26.9678C26.1871 27.2328 26.2154 27.5819 26.0887 27.8459C26.0726 27.8794 26.0382 27.9001 26.0011 27.8986C25.964 27.8971 25.9314 27.8737 25.9181 27.8391C25.9049 27.8048 25.8758 27.7731 25.8246 27.7411C25.7727 27.7086 25.7083 27.6818 25.6349 27.6522L25.6226 27.6472C25.5557 27.6203 25.4816 27.5905 25.4183 27.5533C25.3509 27.5137 25.2832 27.4588 25.2486 27.3759L25.2478 27.3739L25.2478 27.3739C25.2118 27.2811 25.1986 27.2074 25.1976 27.1427C25.1967 27.0924 25.2036 27.0477 25.2089 27.0138C25.2101 27.006 25.2112 26.9988 25.2121 26.9922C25.2172 26.9557 25.2187 26.9268 25.21 26.8904C25.2009 26.8522 25.1789 26.7996 25.1267 26.7213C25.1094 26.6953 25.1063 26.6623 25.1185 26.6335C25.1307 26.6047 25.1565 26.584 25.1873 26.5783C25.5853 26.505 25.8778 26.6968 26.0342 26.9678ZM22.2139 27.5693C22.1603 27.6723 22.1313 27.8019 22.1313 27.8988C22.1313 27.9924 22.1551 28.0546 22.1882 28.1039C22.2236 28.1565 22.2716 28.198 22.3317 28.2497L22.3323 28.2502C22.3813 28.2923 22.4384 28.3415 22.4864 28.405C22.5254 28.3376 22.5711 28.281 22.6124 28.2299C22.6189 28.2219 22.6252 28.214 22.6315 28.2062C22.6827 28.1422 22.7215 28.0891 22.7438 28.0292C22.7647 27.9726 22.7726 27.9045 22.7489 27.8096L22.7432 27.7871H22.7461C22.7461 27.6837 22.7017 27.595 22.643 27.5363C22.571 27.4643 22.4838 27.4321 22.3855 27.4147C22.3295 27.4182 22.2678 27.4657 22.2139 27.5693ZM22.5888 28.6479C22.6144 28.5244 22.6834 28.4385 22.7611 28.3417C22.7663 28.3353 22.7714 28.3289 22.7766 28.3224C22.8279 28.2583 22.8844 28.1846 22.9181 28.0938C22.952 28.0024 22.9609 27.8993 22.9319 27.7755C22.9287 27.6232 22.8625 27.4928 22.7744 27.4048C22.6623 27.2926 22.5291 27.2501 22.4074 27.2298L22.4076 27.2286H22.3921C22.2264 27.2286 22.114 27.3584 22.0489 27.4835C21.9815 27.6133 21.9453 27.7723 21.9453 27.8988C21.9453 28.0287 21.9798 28.1271 22.0339 28.2076C22.0838 28.2818 22.149 28.3378 22.204 28.3851L22.2105 28.3906C22.2697 28.4416 22.3178 28.4842 22.3532 28.5387C22.373 28.5692 22.3896 28.6049 22.3999 28.6495C22.395 28.6828 22.3923 28.718 22.3923 28.7555C22.3923 28.8068 22.4339 28.8484 22.4852 28.8484H22.5039C22.5552 28.8484 22.5968 28.8068 22.5968 28.7555C22.5968 28.7171 22.594 28.6813 22.5888 28.6479ZM14.2439 27.4232C14.3362 27.3126 14.472 27.2472 14.6267 27.2472C14.7942 27.2472 14.9017 27.3794 14.9619 27.5048C15.0243 27.6349 15.0548 27.7932 15.0548 27.9175C15.0548 28.0465 15.022 28.1444 14.9701 28.2248C14.9222 28.2991 14.8595 28.3552 14.8066 28.4025C14.8045 28.4043 14.8025 28.4062 14.8004 28.408C14.7436 28.4589 14.6976 28.5014 14.6636 28.5559C14.6314 28.6075 14.6079 28.6741 14.6079 28.7741C14.6079 28.8254 14.5663 28.867 14.5149 28.867C14.4636 28.867 14.422 28.8254 14.422 28.7741C14.422 28.583 14.3367 28.4721 14.2391 28.3452C14.2359 28.341 14.2326 28.3368 14.2294 28.3325C14.1797 28.2678 14.1246 28.1942 14.0904 28.1058C14.0552 28.0149 14.0434 27.9124 14.0695 27.7893C14.0889 27.656 14.1297 27.5192 14.2439 27.4232ZM14.5228 28.4319C14.4829 28.3568 14.4346 28.2942 14.3911 28.2378C14.3863 28.2316 14.3815 28.2254 14.3768 28.2193C14.3264 28.1537 14.2872 28.0992 14.2638 28.0387C14.2417 27.9815 14.2325 27.9151 14.2519 27.8255L14.2522 27.8255L14.2531 27.8189C14.2707 27.6956 14.3033 27.6136 14.3681 27.5617L14.3696 27.5635L14.3827 27.5472C14.4393 27.4764 14.5243 27.4331 14.6267 27.4331C14.6826 27.4331 14.7427 27.4778 14.7942 27.5852C14.8435 27.6879 14.8689 27.8182 14.8689 27.9175C14.8689 28.0119 14.8458 28.0746 14.8139 28.124C14.78 28.1765 14.734 28.2179 14.6764 28.2695L14.6758 28.27C14.6271 28.3137 14.5699 28.3649 14.5228 28.4319ZM17.6919 27.4267C17.708 27.3964 17.7395 27.3776 17.7738 27.3776C17.9639 27.3776 18.1114 27.4419 18.2138 27.5551C18.3139 27.6658 18.3622 27.8137 18.3762 27.9672C18.4039 28.2723 18.2993 28.6333 18.13 28.8822C18.1071 28.916 18.0648 28.9308 18.0258 28.9188C17.9868 28.9068 17.9602 28.8708 17.9602 28.8299C17.9602 28.7754 17.9374 28.7251 17.8925 28.673C17.8464 28.6195 17.7826 28.5704 17.7107 28.5193C17.6975 28.51 17.6839 28.5005 17.6701 28.4908C17.6127 28.4507 17.5517 28.408 17.5037 28.3647C17.4456 28.3122 17.3829 28.2385 17.3829 28.1409C17.3829 27.9428 17.5263 27.8307 17.6191 27.7581C17.6301 27.7495 17.6405 27.7414 17.6498 27.7338C17.7018 27.6912 17.7253 27.6643 17.7333 27.6401C17.7385 27.6247 17.7432 27.5921 17.6965 27.5221C17.6774 27.4936 17.6757 27.4569 17.6919 27.4267ZM17.9198 27.583C17.9869 27.6031 18.0375 27.6374 18.0758 27.6798C18.1404 27.7512 18.1794 27.8559 18.191 27.9841C18.2088 28.1794 18.1611 28.4092 18.0731 28.6034C18.0608 28.5852 18.0475 28.568 18.0334 28.5516C17.9712 28.4794 17.8907 28.4191 17.8183 28.3677C17.8022 28.3563 17.7866 28.3454 17.7715 28.3348C17.7153 28.2954 17.6669 28.2615 17.6284 28.2267C17.5782 28.1815 17.5688 28.1551 17.5688 28.1409C17.5688 28.0382 17.6352 27.9846 17.7349 27.9041C17.7454 27.8956 17.7563 27.8868 17.7675 27.8777C17.8179 27.8364 17.8828 27.7796 17.9097 27.6989C17.9224 27.661 17.9254 27.6224 17.9198 27.583ZM18.7678 27.5551C18.8701 27.4419 19.0176 27.3776 19.2077 27.3776C19.242 27.3776 19.2735 27.3964 19.2897 27.4267C19.3059 27.4569 19.3041 27.4936 19.2851 27.5221C19.2384 27.5921 19.2431 27.6247 19.2482 27.6401C19.2562 27.6643 19.2798 27.6912 19.3318 27.7338C19.3411 27.7414 19.3514 27.7495 19.3625 27.7581C19.4553 27.8307 19.5986 27.9428 19.5986 28.1409C19.5986 28.2385 19.5359 28.3122 19.4778 28.3647C19.4299 28.408 19.3688 28.4507 19.3114 28.4908C19.2976 28.5005 19.284 28.51 19.2708 28.5193C19.1989 28.5704 19.1351 28.6195 19.089 28.673C19.0442 28.7251 19.0214 28.7754 19.0214 28.8299C19.0214 28.8708 18.9947 28.9068 18.9557 28.9188C18.9167 28.9308 18.8745 28.916 18.8515 28.8822C18.6823 28.6333 18.5776 28.2723 18.6054 27.9672C18.6193 27.8137 18.6677 27.6658 18.7678 27.5551ZM18.9084 28.6034C18.8204 28.4092 18.7728 28.1794 18.7905 27.9841C18.8022 27.8559 18.8411 27.7512 18.9057 27.6798C18.9441 27.6374 18.9947 27.6031 19.0617 27.583C19.0561 27.6224 19.0592 27.661 19.0718 27.6989C19.0987 27.7796 19.1636 27.8364 19.214 27.8777C19.2252 27.8868 19.2361 27.8956 19.2466 27.9041C19.3463 27.9846 19.4127 28.0382 19.4127 28.1409C19.4127 28.1551 19.4033 28.1815 19.3532 28.2267C19.3147 28.2615 19.2663 28.2954 19.21 28.3348C19.195 28.3454 19.1794 28.3563 19.1632 28.3677C19.0908 28.4191 19.0103 28.4794 18.9482 28.5516C18.9341 28.568 18.9207 28.5852 18.9084 28.6034Z" fill="#282828"/>
<path d="M12.0197 26.8934C12.2431 26.8934 12.5969 27.0051 12.6901 27.1168L12.0197 26.8934ZM13.1556 27.2472C13.2673 27.2472 13.7143 27.3403 13.9377 27.4706L13.1556 27.2472ZM17.2339 27.6941C17.029 27.6941 16.5635 27.6941 16.4517 27.8058L17.2339 27.6755V27.6941ZM16.0048 27.6941C15.8745 27.5638 15.4275 27.5638 15.2041 27.6941H16.0048ZM24.9807 26.8934C24.7387 26.8934 24.4966 26.9865 24.3103 27.1168L24.9807 26.8934ZM23.8634 27.2472C23.7144 27.2472 23.2861 27.3403 23.0627 27.4706L23.8634 27.2472ZM19.7665 27.6941C19.9714 27.6941 20.4369 27.6941 20.5673 27.8058L19.7665 27.6755V27.6941ZM20.9956 27.6941C21.1259 27.5638 21.5729 27.5638 21.7963 27.6941H20.9956Z" fill="#FFF0E3"/>
<path fill-rule="evenodd" clip-rule="evenodd" d="M11.9554 26.883C11.9605 26.8519 11.9874 26.829 12.019 26.829C12.1395 26.829 12.2908 26.8587 12.4231 26.902C12.4896 26.9238 12.553 26.9496 12.6067 26.9778C12.6591 27.0054 12.7075 27.0381 12.7388 27.0756C12.7572 27.0977 12.7587 27.1293 12.7425 27.1531C12.7263 27.1769 12.6963 27.187 12.669 27.1779L11.9986 26.9544C11.9687 26.9444 11.9504 26.9142 11.9554 26.883ZM24.2727 27.0641C24.4676 26.9277 24.7223 26.829 24.98 26.829C25.0116 26.829 25.0385 26.8519 25.0436 26.883C25.0486 26.9142 25.0303 26.9444 25.0004 26.9544L24.33 27.1779C24.2997 27.188 24.2665 27.1743 24.2522 27.1458C24.2378 27.1172 24.2466 27.0824 24.2727 27.0641ZM13.0912 27.2382C13.0956 27.2065 13.1228 27.1828 13.1549 27.1828C13.2196 27.1828 13.3661 27.208 13.5201 27.2477C13.6752 27.2876 13.8498 27.3453 13.9695 27.415C13.9975 27.4314 14.009 27.466 13.9962 27.4959C13.9835 27.5257 13.9506 27.5414 13.9194 27.5325L13.1372 27.3091C13.1064 27.3002 13.0867 27.27 13.0912 27.2382ZM23.4742 27.2477C23.6293 27.2078 23.7799 27.1828 23.8627 27.1828C23.8949 27.1828 23.9221 27.2066 23.9265 27.2384C23.9308 27.2703 23.911 27.3005 23.88 27.3092L23.0793 27.5326C23.0481 27.5413 23.0153 27.5255 23.0027 27.4957C22.9901 27.4659 23.0016 27.4314 23.0295 27.415C23.1489 27.3454 23.3186 27.2878 23.4742 27.2477ZM15.8714 27.5584C15.94 27.576 16.0053 27.6042 16.0496 27.6486C16.068 27.667 16.0735 27.6947 16.0636 27.7187C16.0536 27.7428 16.0301 27.7585 16.0041 27.7585H15.2034C15.1743 27.7585 15.1488 27.739 15.1412 27.7109C15.1336 27.6828 15.1458 27.6532 15.1709 27.6385C15.2961 27.5655 15.4763 27.532 15.6387 27.532C15.7207 27.532 15.8013 27.5405 15.8714 27.5584ZM21.3603 27.532C21.5227 27.532 21.7029 27.5655 21.8281 27.6385C21.8532 27.6532 21.8654 27.6828 21.8578 27.7109C21.8502 27.739 21.8247 27.7585 21.7956 27.7585H20.9949C20.9689 27.7585 20.9454 27.7428 20.9354 27.7187C20.9255 27.6947 20.931 27.667 20.9494 27.6486C20.9937 27.6042 21.059 27.576 21.1276 27.5584C21.1977 27.5405 21.2783 27.532 21.3603 27.532ZM17.2748 27.6264C17.2892 27.6386 17.2975 27.6566 17.2975 27.6755V27.6941C17.2975 27.7297 17.2687 27.7585 17.2332 27.7585C17.202 27.7585 17.165 27.7585 17.1244 27.7589L16.4616 27.8693C16.434 27.8739 16.4066 27.8602 16.3938 27.8353C16.381 27.8104 16.3858 27.7801 16.4055 27.7603C16.4466 27.7193 16.5115 27.695 16.5759 27.6788C16.6431 27.6619 16.7219 27.6511 16.8015 27.644C16.9083 27.6344 17.0202 27.6313 17.1132 27.6302L17.2226 27.612C17.2413 27.6089 17.2604 27.6142 17.2748 27.6264ZM19.7241 27.6265C19.7385 27.6142 19.7575 27.6089 19.7762 27.612L19.8886 27.6303C19.9812 27.6313 20.0924 27.6345 20.1998 27.644C20.2805 27.6511 20.3608 27.6619 20.4303 27.6787C20.4978 27.6949 20.5638 27.7187 20.6085 27.757C20.6304 27.7758 20.6371 27.8068 20.6249 27.833C20.6128 27.8591 20.5847 27.874 20.5562 27.8694L19.8776 27.7589C19.8358 27.7585 19.7978 27.7585 19.7658 27.7585C19.7303 27.7585 19.7015 27.7297 19.7015 27.6941V27.6755C19.7015 27.6566 19.7097 27.6387 19.7241 27.6265Z" fill="#282828"/>
<path d="M11.8145 28.6997C11.7586 28.6811 11.7027 28.6066 11.74 28.5507C11.7586 28.4576 11.8145 28.4204 11.8703 28.439C11.9262 28.439 12.0007 28.5321 12.0007 28.5507L11.9448 28.6624H11.9262C11.9262 28.6997 11.8703 28.6997 11.8145 28.6997ZM19.6917 29.2584C19.6544 29.2584 19.5986 29.1839 19.5986 29.1652C19.5986 29.0908 19.6917 29.0163 19.7475 29.0163L19.8593 29.0721C19.8965 29.1094 19.8965 29.2025 19.8406 29.2397C19.822 29.277 19.7289 29.277 19.6917 29.2397V29.2584ZM19.7289 29.6122C19.673 29.5936 19.6544 29.5563 19.6358 29.5004C19.6358 29.426 19.6358 29.4073 19.7103 29.3701L19.7662 29.3328L19.822 29.3701C19.8779 29.4073 19.9338 29.426 19.9338 29.4818C19.9338 29.5191 19.8779 29.5749 19.822 29.5936C19.7848 29.6308 19.7662 29.6308 19.7289 29.5936V29.6122Z" fill="#282828"/>
<path d="M12.4666 28.0479C12.4107 28.0479 12.3362 28.1038 12.299 28.1224C12.2059 28.141 12.0941 28.1969 12.001 28.1224C11.9265 28.1038 11.8148 28.1224 11.7962 28.2341C11.8148 28.3459 11.9265 28.3831 12.0196 28.3273C12.0755 28.2528 12.2431 28.1969 12.2617 28.3273C12.1872 28.439 12.2059 28.5693 12.15 28.6625C12.15 28.7369 12.1128 28.7928 12.0755 28.8487C12.001 28.8487 11.9265 28.8487 11.8707 28.9045C11.8334 28.9045 11.7962 28.9045 11.7589 28.9232C11.7031 28.9418 11.6844 28.979 11.6472 29.0163C11.5913 29.0908 11.5355 29.1839 11.5168 29.2956C11.5355 29.3887 11.6658 29.4074 11.7589 29.426L12.0383 29.5191L12.4852 29.6494C12.7273 29.7053 12.9508 29.7425 13.1742 29.7984L13.2487 29.817C13.3605 29.8357 13.3977 29.7426 13.3977 29.6681L13.5467 29.1653C13.5653 29.0908 13.6025 28.9418 13.4722 28.979C13.4163 29.0163 13.3418 29.0908 13.2487 29.0908C13.1184 29.0908 13.1929 29.2211 13.2487 29.277C13.2487 29.3515 13.2301 29.4632 13.1742 29.5191C13.0997 29.575 13.0066 29.5191 12.9135 29.5005C12.8576 29.5005 12.6714 29.4632 12.7459 29.3515L12.8204 29.0908C12.8576 29.0163 12.8576 28.9045 12.8949 28.8114C12.839 28.7183 12.7459 28.8487 12.6714 28.8673C12.6156 28.9046 12.448 28.9046 12.5411 29.0163C12.6156 29.0721 12.5597 29.1653 12.5411 29.2584C12.5411 29.3515 12.4293 29.4074 12.3362 29.3515C12.2431 29.3515 12.1128 29.277 12.1872 29.2025L12.2617 28.9418L12.3735 28.6625C12.3735 28.5507 12.4107 28.4762 12.448 28.4017C12.448 28.29 12.5224 28.2155 12.5224 28.1038C12.5224 28.0665 12.4852 28.0479 12.4666 28.0479ZM11.9265 29.0908C11.9452 29.0721 11.9452 29.0721 11.9638 29.0721C11.9638 29.0721 11.9638 29.0721 11.9824 29.0908C12.001 29.1094 12.001 29.1466 11.9824 29.1653L11.9265 29.2025C11.8707 29.2025 11.852 29.1839 11.852 29.1653C11.852 29.1466 11.852 29.128 11.8893 29.1094C11.9079 29.1094 11.9265 29.0908 11.9452 29.0908H11.9265ZM11.7962 29.7984C11.7217 29.7425 11.7403 29.7053 11.8334 29.6122C11.8893 29.5936 11.9079 29.5936 11.9638 29.6308C12.0569 29.7053 12.0569 29.7426 11.9638 29.817C11.9265 29.8357 11.9265 29.8357 11.8893 29.8357C11.852 29.8357 11.8334 29.8357 11.7962 29.817V29.7984ZM12.2245 29.9474C12.1872 29.9288 12.1686 29.9102 12.15 29.8729C12.1314 29.8543 12.1314 29.817 12.1314 29.7798C12.1686 29.7239 12.1872 29.7053 12.2617 29.7053C12.3735 29.7053 12.3735 29.7239 12.3921 29.817C12.3921 29.8729 12.3921 29.8915 12.3549 29.9102C12.3362 29.9288 12.3176 29.9288 12.299 29.9474C12.2804 29.9474 12.2617 29.9474 12.2431 29.9474H12.2245ZM24.9807 29.9474C24.9435 29.9288 24.9435 29.9102 24.9435 29.8729C24.9435 29.817 24.9621 29.7798 25.0552 29.7426C25.1297 29.7053 25.1856 29.7053 25.2228 29.7798C25.2601 29.8543 25.2601 29.8915 25.2042 29.9474C25.1856 29.9846 25.167 29.9846 25.0925 29.9846C25.018 29.9846 24.9994 29.9846 24.9807 29.966V29.9474ZM12.8204 30.115C12.7645 30.115 12.7273 30.0591 12.7273 30.0033C12.7273 29.966 12.7273 29.9474 12.7645 29.9102L12.8576 29.8915H12.9321C13.0066 29.966 13.0252 30.0219 12.988 30.0778C12.9321 30.1336 12.8949 30.1336 12.8018 30.115H12.8204ZM15.9489 30.264L15.9117 30.2081C15.9117 30.1336 15.9117 30.0591 15.9489 29.966C15.9489 29.8915 15.9489 29.8357 15.9676 29.7612L16.0234 29.3515C16.0234 29.277 16.0234 29.2211 16.0607 29.1653C16.0607 29.0349 16.0607 28.9418 16.0793 28.8487C16.0793 28.7928 16.1352 28.6997 16.1724 28.7556C16.2283 28.8487 16.3028 28.9045 16.3773 28.979C16.4331 29.0163 16.3773 29.0721 16.3214 29.0908C16.2655 29.0908 16.2469 29.1653 16.2469 29.2211L16.2283 29.4073C16.2283 29.5005 16.2283 29.5936 16.191 29.6867V29.9474L16.1538 30.115C16.1538 30.1709 16.1538 30.2454 16.0979 30.264C16.0607 30.3012 15.9862 30.3012 15.9489 30.264ZM20.1948 28.8487L20.0086 29.0349C19.9155 29.0908 20.0645 29.128 20.0831 29.1839C20.1203 29.277 20.1203 29.3515 20.1203 29.4446C20.139 29.5191 20.1576 29.5936 20.139 29.6867C20.139 29.7798 20.0272 29.7612 19.9714 29.817C19.8969 29.8357 19.8782 29.9102 19.8224 29.966C19.8038 30.0219 19.7851 30.115 19.7665 30.1895C19.7665 30.264 19.7293 30.3198 19.7665 30.3943L19.7851 30.413H19.8596L20.0645 30.3943C20.2507 30.3757 20.4369 30.3757 20.6045 30.3571L20.9211 30.3198C20.9956 30.3385 21.0514 30.264 21.0514 30.1895C20.9956 30.0778 21.0328 29.9846 20.9956 29.8915C20.9583 29.7798 20.977 29.6867 20.9583 29.5936C20.9583 29.5005 20.8652 29.4632 20.8094 29.5191C20.7535 29.5936 20.679 29.5936 20.6418 29.6494C20.6045 29.7425 20.7349 29.7425 20.7535 29.7984L20.7721 30.0219C20.7907 30.0964 20.6976 30.0964 20.6231 30.115C20.5673 30.1336 20.4555 30.1522 20.4183 30.0778C20.381 30.0033 20.381 29.9288 20.381 29.8543C20.381 29.7053 20.3438 29.5936 20.3438 29.4632C20.3438 29.3329 20.3066 29.1653 20.3066 29.0163C20.3066 28.9418 20.2879 28.8487 20.1948 28.8487ZM20.1017 30.0219H20.139V30.1336L20.1017 30.1522C20.0831 30.1709 20.0645 30.1709 20.0458 30.1709C20.0272 30.1709 20.0272 30.1709 20.0086 30.1709C19.99 30.1336 19.99 30.0964 20.0272 30.0591L20.1017 30.0219ZM15.8186 28.7183C15.7627 28.7183 15.6882 28.8114 15.6324 28.7928C15.502 28.8114 15.5206 28.9418 15.6324 28.979V29.0908C15.6324 29.2211 15.5765 29.3142 15.5765 29.426C15.5765 29.5377 15.5393 29.6681 15.5393 29.7984C15.502 29.9288 15.502 30.0591 15.4834 30.1895C15.4648 30.3012 15.3903 30.264 15.3158 30.2267V30.0778C15.3344 29.966 15.2413 29.9288 15.1482 29.9102C15.0365 29.9102 14.9992 29.8357 15.0178 29.7612C15.0737 29.7053 15.1668 29.7053 15.2413 29.7053C15.3903 29.7425 15.3717 29.5563 15.2972 29.4818C15.2413 29.4073 15.1296 29.3329 15.0923 29.2584C15.0923 29.1466 15.0178 29.0163 14.9247 28.9604C14.7757 28.9418 14.6454 29.0721 14.5895 29.2211C14.515 29.2211 14.4592 29.2397 14.4033 29.277C14.2916 29.2956 14.1612 29.4632 14.2916 29.5377C14.3661 29.5563 14.6081 29.6122 14.4964 29.7053C14.4405 29.8357 14.3288 29.8357 14.2171 29.7984C14.124 29.7984 14.0122 29.7425 14.0122 29.6308C13.9936 29.5191 13.9936 29.4074 13.9564 29.2956C13.9191 29.1839 13.7888 29.2211 13.7888 29.3329C13.677 29.4073 13.6957 29.5191 13.7701 29.6122C13.8074 29.7053 13.7701 29.8357 13.7143 29.9288C13.6957 30.0778 13.5467 30.0778 13.4536 30.0964C13.4163 30.1336 13.2301 30.0964 13.286 30.2081C13.3977 30.2454 13.528 30.264 13.6398 30.2454C13.7515 30.2454 13.8446 30.1336 13.9191 30.0405C13.9936 29.966 14.124 30.0219 14.2357 30.0219C14.3474 30.0219 14.4592 30.0778 14.5709 30.0219C14.5895 29.966 14.7385 29.817 14.7757 29.966C14.7757 30.0778 14.8875 30.1336 14.9992 30.1336C15.1296 30.1336 15.0737 30.2081 15.0737 30.3012C15.0737 30.4316 15.1668 30.5061 15.2785 30.5619H15.3903C15.502 30.5061 15.6137 30.4688 15.651 30.3571C15.6882 30.264 15.6882 30.1336 15.7255 30.0405C15.7627 29.8915 15.7813 29.7053 15.7813 29.5563C15.8186 29.4073 15.8186 29.2584 15.8372 29.0908L15.8745 28.7742C15.8745 28.6997 15.8558 28.6997 15.8186 28.7183ZM14.8502 29.2956C14.8689 29.2956 14.8875 29.3329 14.8875 29.3701C14.8875 29.426 14.9061 29.4632 14.962 29.4818V29.5191L14.8316 29.5563C14.7757 29.5563 14.7012 29.5191 14.664 29.4818L14.6454 29.4632L14.7571 29.3515C14.7944 29.3142 14.8316 29.2956 14.8502 29.2956ZM24.2917 28.1783C24.2172 28.1783 24.1241 28.1969 24.0496 28.2155C23.9006 28.2155 23.8262 28.3459 23.9751 28.439C24.0683 28.6625 24.1986 28.3831 24.329 28.4204C24.5338 28.439 24.5524 28.6625 24.5897 28.8487C24.5897 28.9977 24.6455 29.1653 24.7014 29.3142C24.8318 29.4632 24.5897 29.575 24.4966 29.4632C24.4034 29.3515 24.1986 29.2397 24.1055 29.3701C23.9751 29.426 23.9565 29.5936 23.8634 29.6494C23.6958 29.7053 23.6772 29.4818 23.5841 29.4073C23.491 29.277 23.342 29.2584 23.2116 29.2211C23.1558 29.0908 23.1744 28.8859 23.0626 28.7928C22.9509 28.8487 22.7461 29.0349 22.9137 29.1466C23.0626 29.277 22.8392 29.3329 22.7833 29.426C22.653 29.5563 22.6343 29.7053 22.6343 29.8543C22.4481 29.966 22.4109 29.7426 22.3922 29.6122C22.3922 29.4632 22.2433 29.5005 22.1502 29.5563C22.0012 29.6122 21.9453 29.7425 21.8522 29.8357V30.1336C21.8894 30.264 22.0384 30.2081 22.1129 30.1895C22.2619 30.1336 22.3178 30.2826 22.206 30.3757C22.1129 30.4502 21.8894 30.4129 21.9267 30.5805H22.1502C22.2991 30.5247 22.4667 30.413 22.4854 30.2454C22.504 30.0964 22.7274 30.115 22.8392 30.0778C22.9695 30.0405 23.1558 30.0219 23.2116 30.2267C23.3047 30.3198 23.5282 30.4502 23.6399 30.3012C23.6958 30.264 23.733 30.2081 23.7517 30.1522C23.7889 30.0964 23.8075 30.0405 23.7889 29.966C23.7703 29.8543 23.9751 29.8543 24.031 29.9288C24.1055 30.0405 24.329 30.0219 24.4407 29.9288C24.5711 29.8543 24.5897 29.7053 24.7573 29.7053L25.5394 29.4818C25.7442 29.4446 25.5022 29.3142 25.4463 29.2211C25.3159 29.1653 25.167 29.4632 24.9994 29.3142C24.8504 29.2211 24.869 29.0349 24.8131 28.8673C24.7759 28.6625 24.7945 28.439 24.6455 28.29C24.571 28.1969 24.4221 28.1783 24.2917 28.1783ZM23.3234 29.5191C23.342 29.5191 23.3606 29.5191 23.3978 29.5563C23.4537 29.5936 23.491 29.6494 23.491 29.7053C23.491 29.7239 23.491 29.7239 23.4537 29.7426L23.3792 29.7798C23.342 29.7798 23.2861 29.7239 23.2861 29.7053V29.6494C23.2489 29.5936 23.2489 29.5936 23.2861 29.5563L23.3234 29.5191ZM24.2545 29.5936C24.3103 29.5936 24.329 29.5936 24.3662 29.6308C24.3848 29.6867 24.3662 29.7053 24.3103 29.7426L24.2358 29.7798L24.18 29.7239C24.1427 29.7053 24.1427 29.7053 24.1427 29.6681C24.1427 29.6308 24.1986 29.5936 24.2545 29.5749V29.5936ZM22.9695 29.5936C22.9882 29.5936 23.0068 29.5936 23.0254 29.6122C23.044 29.6494 23.0626 29.6494 23.0626 29.7053V29.7798C23.0626 29.8357 23.0626 29.817 22.9695 29.817C22.895 29.817 22.8764 29.817 22.8764 29.7239C22.8764 29.6681 22.8764 29.6494 22.9137 29.6308C22.9323 29.5936 22.9695 29.5936 22.9695 29.5936ZM22.1874 29.7984C22.206 29.7984 22.2246 29.817 22.2246 29.817C22.2433 29.8357 22.2433 29.8357 22.2433 29.8543C22.2433 29.8915 22.2433 29.9288 22.2246 29.9474C22.1688 29.966 22.1129 29.966 22.0757 29.9474C22.0757 29.9288 22.0757 29.9288 22.0757 29.9288C22.0384 29.9102 22.0384 29.8915 22.0757 29.8915V29.8729L22.1129 29.8357C22.1129 29.817 22.1315 29.7984 22.1502 29.7984C22.1502 29.7984 22.1688 29.7984 22.1874 29.7984ZM23.5096 29.966L23.5841 29.9846V30.0778H23.3978V30.0405C23.3978 30.0219 23.3978 30.0033 23.4165 29.9846L23.5096 29.966ZM21.0514 30.655C21.0514 30.655 21.0142 30.6364 21.0514 30.6364C21.0514 30.5806 21.1259 30.5805 21.1632 30.5433C21.2377 30.5061 21.3122 30.4688 21.368 30.3943C21.368 30.3385 21.4239 30.3198 21.4239 30.264L21.4053 30.0591C21.3866 30.0033 21.3494 29.9474 21.2935 29.9102C21.2377 29.8915 21.1818 29.8915 21.1818 29.8357C21.1818 29.7798 21.219 29.7425 21.2377 29.7053L21.3122 29.5191C21.368 29.4818 21.4239 29.5191 21.4239 29.5563L21.4984 29.7053C21.5542 29.7425 21.5729 29.7798 21.5915 29.8357C21.6101 29.8915 21.6474 29.9474 21.6474 29.9846L21.666 30.1709C21.666 30.2454 21.666 30.3198 21.6474 30.3943L21.5542 30.5061C21.517 30.5619 21.4798 30.5992 21.4239 30.6178C21.368 30.6364 21.3494 30.6737 21.2935 30.6737H21.0701L21.0514 30.655ZM20.0645 30.7109C20.0458 30.6923 20.0272 30.6737 20.0272 30.6364C20.0272 30.5806 20.0272 30.5805 20.0645 30.5433C20.139 30.4874 20.1576 30.4874 20.2693 30.5433C20.381 30.5992 20.4183 30.5992 20.4183 30.5619C20.4369 30.5247 20.4928 30.4874 20.5673 30.4874C20.5859 30.4874 20.6045 30.5061 20.6231 30.5061C20.6604 30.5433 20.679 30.5619 20.679 30.6178C20.679 30.6923 20.679 30.6923 20.6231 30.7295C20.5859 30.7668 20.5859 30.7668 20.53 30.7668C20.5114 30.7482 20.4742 30.7482 20.4555 30.7295C20.4369 30.7109 20.4183 30.6923 20.4183 30.6737C20.4183 30.6364 20.4183 30.6364 20.381 30.655L20.3624 30.6737C20.3252 30.6737 20.2693 30.7109 20.2507 30.7482L20.1762 30.7668C20.1203 30.7668 20.1203 30.7668 20.0645 30.7109ZM17.2339 29.4446C17.1408 29.4446 17.0477 29.5191 17.029 29.6308C17.0477 29.7239 17.1408 29.8357 17.0849 29.9474C17.1221 30.0778 16.9732 30.1336 16.8614 30.0778C16.8056 29.9288 16.7869 29.7798 16.6752 29.6494C16.5635 29.6122 16.5262 29.7984 16.4331 29.8729C16.489 29.966 16.6007 30.0778 16.6193 30.2081C16.638 30.3385 16.5635 30.4874 16.4517 30.5433C16.3586 30.6364 16.2097 30.6178 16.0979 30.6364C15.9489 30.7109 16.191 30.7482 16.2655 30.7482C16.4145 30.7668 16.5635 30.7482 16.6938 30.6364C16.8056 30.5806 16.7869 30.3943 16.9173 30.3757L17.6063 30.413C17.7181 30.4502 17.9043 30.3943 17.9788 30.4874C17.9788 30.6364 18.1277 30.7482 18.2581 30.804C18.3326 30.8226 18.4071 30.7295 18.463 30.7109C18.6119 30.6737 18.5747 30.5061 18.6492 30.4316H19.3754C19.3941 30.4316 19.4127 30.3571 19.4499 30.3198L19.4313 30.0591C19.3941 29.9474 19.4313 29.7984 19.3568 29.7053C19.2265 29.6681 19.1333 29.7798 19.0216 29.7798C18.8726 29.8357 18.7795 29.966 18.7609 30.115C18.6864 30.2454 18.5561 30.0778 18.6119 29.966L18.5933 29.8357C18.5374 29.7612 18.4071 29.7798 18.2953 29.7798L17.867 29.7426C17.7367 29.7426 17.6063 29.7612 17.476 29.7239C17.3456 29.7239 17.3456 29.5936 17.3456 29.4632C17.3084 29.4446 17.2711 29.4446 17.2339 29.4446ZM17.5318 29.966L17.6622 29.9846H17.8484C17.9974 30.0219 18.1464 30.0219 18.2767 30.0219C18.314 30.0219 18.3512 30.0405 18.3698 30.0778V30.3571C18.3698 30.3943 18.3698 30.4502 18.3512 30.4688C18.3326 30.4874 18.3326 30.4874 18.314 30.5061C18.2953 30.4874 18.2767 30.4874 18.2581 30.4688C18.2395 30.4688 18.2209 30.4502 18.2209 30.4316V30.2267C18.1836 30.2081 18.1464 30.1895 18.1091 30.1895L17.7367 30.1709L17.4573 30.1522C17.4201 30.1336 17.3642 30.1522 17.327 30.0964C17.2897 30.0778 17.3456 30.0219 17.3829 30.0033C17.4387 29.9846 17.476 29.966 17.5318 29.966ZM19.152 30.0219C19.152 30.0219 19.1706 30.0219 19.1706 30.0591L19.2078 30.1336C19.2078 30.1336 19.2078 30.1522 19.1706 30.1522C19.0961 30.1895 19.0216 30.1895 19.003 30.1522C19.003 30.1336 19.003 30.0778 19.0216 30.0778L19.152 30.0219Z" fill="#282828"/>
<path d="M18.5 21.9212C23.1556 18.3457 22.7645 13.0756 22.7645 13.0756L22.4107 13.1129C21.4237 13.1129 19.0773 12.5356 18.5373 11.8279C17.9786 12.4797 15.5764 13.1315 14.5894 13.1315L14.2356 13.0756C14.2356 13.0756 13.8259 18.3271 18.5 21.9212Z" fill="#FFF0E3"/>
<path fill-rule="evenodd" clip-rule="evenodd" d="M18.5404 11.7029L18.5994 11.7802C18.7231 11.9423 18.9575 12.1045 19.2659 12.2567C19.5721 12.4078 19.9425 12.5448 20.3285 12.6604C21.0999 12.8914 21.9226 13.0334 22.4062 13.0342L22.8365 12.9889L22.8425 13.0698L22.8436 13.0862L22.8459 13.1323C22.8477 13.1726 22.8497 13.2318 22.8505 13.3082C22.8521 13.4611 22.8491 13.683 22.831 13.9601C22.7946 14.5143 22.6973 15.2902 22.4535 16.1784C21.966 17.9553 20.892 20.1831 18.5475 21.9836L18.4996 22.0204L18.4517 21.9836C16.098 20.1738 15.0239 17.946 14.5387 16.1714C14.2961 15.2842 14.2005 14.5101 14.1656 13.9573C14.1482 13.6809 14.1459 13.4597 14.148 13.3072C14.149 13.231 14.1512 13.172 14.1531 13.1318L14.1556 13.0859L14.1564 13.0739L14.1633 12.9847L14.5951 13.0528C15.078 13.0515 15.9129 12.8914 16.7004 12.649C17.0948 12.5275 17.4744 12.3863 17.7891 12.2356C18.1063 12.0839 18.3486 11.9267 18.4771 11.7768L18.5404 11.7029ZM14.309 13.1669C14.3075 13.2034 14.3061 13.2512 14.3053 13.3094C14.3032 13.4582 14.3055 13.6753 14.3226 13.9474C14.357 14.4916 14.4512 15.2549 14.6904 16.1299C15.1655 17.8674 16.2124 20.0442 18.4996 21.8218C20.7775 20.0534 21.8244 17.8767 22.3018 16.1368C22.5423 15.2606 22.6382 14.4955 22.674 13.9498C22.6919 13.677 22.6947 13.4592 22.6932 13.3099C22.6925 13.2491 22.6911 13.1997 22.6897 13.1626L22.4103 13.192C21.9063 13.192 21.0648 13.0451 20.2834 12.8111C19.892 12.6939 19.5128 12.554 19.1963 12.3978C18.9208 12.2619 18.6859 12.1103 18.5336 11.9458C18.3769 12.0977 18.1375 12.2433 17.8571 12.3775C17.5334 12.5325 17.146 12.6763 16.7467 12.7993C15.9499 13.0446 15.0939 13.2102 14.5889 13.2102H14.5765L14.309 13.1669Z" fill="#282828"/>
<path d="M22.3919 13.4481H22.2802C21.3863 13.4481 19.3378 13.0011 18.5371 12.3307C17.6991 12.9453 15.5948 13.4667 14.7195 13.4667C14.6823 13.4667 14.645 13.4667 14.6078 13.4481C14.6264 14.3606 14.7381 15.2544 14.9802 16.1297C15.5575 18.234 16.7866 20.0962 18.4998 21.437C20.2131 20.0776 21.4422 18.2154 22.0194 16.111C22.2615 15.2544 22.3733 14.3606 22.3919 13.4481Z" fill="#FFF0E3"/>
<path fill-rule="evenodd" clip-rule="evenodd" d="M18.5407 12.249L18.5794 12.2814C18.9683 12.607 19.6689 12.8835 20.3915 13.0787C21.1122 13.2734 21.8418 13.3837 22.2811 13.3837H22.4585L22.4572 13.4494C22.4385 14.3661 22.3262 15.2655 22.0824 16.1283C21.5015 18.2457 20.2647 20.1196 18.5408 21.4874L18.5011 21.519L18.4611 21.4877C16.7368 20.1383 15.5 18.2642 14.9191 16.1467C14.6754 15.2655 14.5631 14.3663 14.5444 13.4494L14.5422 13.3429L14.6375 13.3905C14.6593 13.4014 14.6816 13.4023 14.7205 13.4023C15.1495 13.4023 15.8878 13.2738 16.6259 13.0672C17.3648 12.8604 18.0909 12.5789 18.5 12.2788L18.5407 12.249ZM16.6606 13.1912C15.9182 13.3989 15.1668 13.5311 14.7205 13.5311C14.7193 13.5311 14.7217 13.5311 14.7205 13.5311C14.7081 13.5311 14.6904 13.5311 14.6751 13.53C14.6986 14.4092 14.8102 15.2699 15.0432 16.1125C15.6124 18.1873 16.8192 20.0252 18.5005 21.3549C20.1823 20.0068 21.3891 18.1689 21.9583 16.094C22.1929 15.2642 22.3045 14.3977 22.327 13.5124H22.2811C21.8265 13.5124 21.085 13.3993 20.3579 13.2029C19.6548 13.013 18.953 12.7421 18.5355 12.4117C18.1013 12.7147 17.3793 12.99 16.6606 13.1912Z" fill="#282828"/>
<path d="M16.9914 13.0198C16.2093 13.2805 15.4085 13.4108 14.6078 13.4481L14.6264 14.044C14.6637 14.733 14.794 15.4406 14.9802 16.111C15.3713 17.5263 16.0417 18.8299 16.9914 19.9472V13.0198ZM19.9338 13.0198V20.059C20.9021 18.923 21.6284 17.5636 22.0194 16.111C22.2057 15.4406 22.3174 14.733 22.3733 14.044L22.3919 13.4667H22.2802C21.7401 13.4667 20.7904 13.2991 19.9338 13.0011V13.0198Z" fill="#282828"/>
<path d="M20.3311 11.2926C20.4317 11.2926 20.2017 10.7752 20.2017 10.7752C20.4605 11.0339 21.4091 11.0914 21.4091 11.0914C20.8342 10.8327 20.2592 8.92102 20.3311 7.39743C20.3886 5.85947 20.1155 5.25578 19.8855 5.04018C19.5981 4.75271 18.6782 4.49399 18.0601 4.46524C17.7151 4.45087 17.7726 4.72396 17.7726 4.72396C17.1402 4.56585 16.4934 4.49398 16.2059 4.69521C15.9328 4.88207 15.8753 5.77323 16.0766 5.61512C16.5509 5.22703 16.9677 5.58637 17.2552 6.0032C17.5139 6.36254 17.4852 7.4118 17.1258 8.61918C16.7377 9.89842 15.6885 11.1633 15.6885 11.1633C16.2634 11.1633 17.054 10.6602 17.054 10.6602L16.8671 11.4508C17.4708 11.1633 17.9451 10.7177 17.9451 10.7177L18.5201 11.3214C18.7069 11.0627 19.095 10.7177 19.095 10.7177C19.095 10.7177 19.5981 11.2208 20.3311 11.2926Z" fill="#FFF0E3"/>
<path d="M16.7657 11.6095L16.9525 10.8333C16.6794 10.9914 16.1476 11.2502 15.7164 11.2502H15.5295L15.6445 11.1064C15.6589 11.0921 16.6794 9.8272 17.0531 8.59108C17.4268 7.34058 17.4125 6.36319 17.1969 6.04697C16.9956 5.74513 16.7657 5.57265 16.5644 5.5439C16.4207 5.52953 16.277 5.57265 16.1332 5.68763C16.0757 5.74513 16.0182 5.73075 15.9895 5.71638C15.932 5.68763 15.8889 5.61577 15.8745 5.50078C15.8458 5.2708 15.932 4.7821 16.162 4.62399C16.5069 4.39402 17.2256 4.50901 17.6856 4.62399C17.6999 4.58087 17.7143 4.53775 17.7431 4.49463C17.8149 4.42277 17.9155 4.37965 18.0593 4.39402C18.6917 4.42277 19.6404 4.69586 19.9422 4.99771C20.1866 5.24206 20.474 5.87449 20.4165 7.42682C20.3447 8.99353 20.9483 10.819 21.4514 11.0346L21.4083 11.2071C21.3221 11.2071 20.7471 11.1639 20.3734 11.0058C20.474 11.2789 20.4309 11.322 20.4165 11.3508C20.4022 11.3795 20.359 11.3939 20.3159 11.3939C19.7122 11.3364 19.2666 10.9914 19.1085 10.8477C18.9936 10.9483 18.7492 11.1927 18.6055 11.3795L18.548 11.4658L17.9587 10.8477C17.8006 10.9771 17.3981 11.3077 16.9238 11.5376L16.7657 11.6095ZM17.2112 10.4596L17.01 11.2789C17.5131 11.0058 17.9012 10.6465 17.9012 10.6465L17.9587 10.589L18.5192 11.1783C18.7205 10.934 19.0223 10.6609 19.0367 10.6465L19.0942 10.589L19.1517 10.6465C19.1517 10.6465 19.5829 11.0921 20.2297 11.1783C20.2009 11.0921 20.1434 10.934 20.0859 10.7902L20.2297 10.6896C20.3734 10.8333 20.7759 10.9196 21.0921 10.9483C20.5746 10.359 20.1434 8.72044 20.2009 7.36933C20.2584 5.80262 19.9709 5.25643 19.7841 5.06957C19.511 4.79648 18.6198 4.55213 18.0162 4.52338C17.9587 4.52338 17.8868 4.52338 17.8437 4.5665C17.8006 4.60962 17.8149 4.68149 17.8149 4.68149L17.8437 4.81085L17.7143 4.7821C17.01 4.59525 16.4494 4.58087 16.2195 4.73898C16.1476 4.79648 16.0757 4.94021 16.0326 5.14144C16.0039 5.29955 16.0039 5.42891 16.0182 5.50078C16.1907 5.37142 16.3632 5.3283 16.5501 5.34267C16.8088 5.38579 17.0531 5.57264 17.2975 5.91761C17.585 6.33444 17.5275 7.4412 17.1825 8.60545C16.8806 9.62597 16.162 10.6321 15.8601 11.0202C16.3776 10.934 16.9813 10.5459 16.9813 10.5459L17.2112 10.4596Z" fill="#282828"/>
<path d="M20.1292 10.8331C19.583 10.0282 19.4537 7.88658 19.4393 7.80034L19.6261 7.78597C19.6261 7.81471 19.7555 9.97074 20.2873 10.7325L20.1292 10.8331ZM18.0451 10.7613L17.8869 10.675C18.2894 9.94199 18.4188 7.58474 18.4188 7.55599L18.6056 7.57036C18.5912 7.67098 18.4763 9.98511 18.0451 10.7613ZM19.0368 10.7469C18.8787 10.287 18.8787 7.75722 18.8787 7.65661H19.0656C19.0656 8.37528 19.0943 10.3301 19.2237 10.6894L19.0368 10.7469ZM17.1539 10.7182L17.0245 10.6032C17.5995 9.95636 17.9301 7.64223 17.9301 7.61349L18.1169 7.64223C18.0882 7.72847 17.7576 10.0282 17.1539 10.7182Z" fill="#282828"/>
<path d="M17.4271 6.4784C17.3983 6.27718 17.3552 6.10469 17.269 6.00408C16.9815 5.58725 16.5647 5.24228 16.0903 5.616C16.0903 5.616 16.2484 5.11292 16.6078 5.09855C16.8809 5.08418 17.4989 5.29978 18.0308 6.21968C18.0308 6.21968 17.6283 6.13344 17.5277 6.21968C17.3552 6.37779 17.4271 6.4784 17.4271 6.4784ZM16.0328 4.99794C16.076 4.86857 16.1335 4.75359 16.2197 4.69609C16.5072 4.50924 17.1396 4.56673 17.7864 4.72484C17.7864 4.72484 17.7289 4.45174 18.0739 4.46612C18.6776 4.49486 19.6118 4.75359 19.8993 5.04106C19.9712 5.11292 20.043 5.22791 20.1149 5.38602H20.1005C19.9568 5.18479 19.5543 5.19916 19.4681 5.21354C19.31 5.22791 19.2238 5.22791 19.0225 5.27103C18.9219 5.29978 18.7782 5.32852 18.7063 5.38602C18.6488 5.44351 18.5913 5.616 18.4907 5.616C18.3326 5.616 18.347 5.57287 18.3039 5.52975C18.2464 5.47226 18.232 5.37165 18.1745 5.38602C18.0164 5.41477 17.7577 5.28541 17.4414 5.04106C17.1252 4.79671 16.9959 4.72484 16.579 4.75359C16.1622 4.78233 16.0328 5.01231 16.0328 5.01231V4.99794Z" fill="#282828"/>
<path d="M17.3988 6.49154C17.3988 6.49154 17.37 6.44842 17.3844 6.39093C17.3557 6.21845 17.3125 6.10346 17.255 6.00284C17.0394 5.68663 16.8095 5.49977 16.5795 5.47103C16.4214 5.44228 16.2633 5.49977 16.1052 5.62913L16.0333 5.68663L16.062 5.60039C16.062 5.58601 16.2345 5.08294 16.5939 5.05419C16.867 5.03982 17.4994 5.25542 18.0456 6.1897L18.0743 6.24719L18.0168 6.23282C17.8731 6.20407 17.6 6.16095 17.5425 6.21845C17.4706 6.29031 17.4419 6.33343 17.4275 6.37655C17.4275 6.4053 17.4419 6.43405 17.4419 6.4628L17.3988 6.49154ZM16.5076 5.42791C16.5364 5.42791 16.5651 5.42791 16.5939 5.42791C16.8382 5.45665 17.0682 5.64351 17.2982 5.9741C17.3557 6.04597 17.3988 6.16095 17.4275 6.29031C17.4419 6.26157 17.485 6.21845 17.5281 6.17533C17.6144 6.10346 17.8731 6.14658 17.9881 6.16095C17.3269 5.06857 16.6514 5.09731 16.6082 5.09731C16.3639 5.11169 16.2058 5.38478 16.1483 5.52852C16.2633 5.47103 16.3783 5.42791 16.5076 5.42791ZM18.4768 5.64351C18.3474 5.64351 18.3187 5.61476 18.2899 5.57164C18.2899 5.55727 18.2756 5.55727 18.2756 5.54289C18.2612 5.51415 18.2468 5.49977 18.2324 5.47103C18.2181 5.44228 18.1893 5.39916 18.1749 5.39916C18.0168 5.42791 17.7581 5.31292 17.4275 5.03982C17.1113 4.7811 16.9963 4.7236 16.5795 4.75235C16.1914 4.7811 16.062 4.9967 16.062 5.01107L16.0189 4.98233L16.0333 4.95358C16.062 4.86734 16.1195 4.70923 16.2202 4.63736C16.5651 4.40739 17.3269 4.55112 17.7725 4.66611C17.7725 4.62299 17.7725 4.55112 17.83 4.49363C17.8875 4.43613 17.9737 4.40739 18.0887 4.40739C18.7211 4.43613 19.641 4.69486 19.9285 4.9967C20.0148 5.09732 20.0866 5.2123 20.1441 5.34166L20.1585 5.37041H20.101L20.0866 5.35604C19.9573 5.18356 19.5979 5.18356 19.4686 5.19793C19.4254 5.19793 19.3823 5.2123 19.3536 5.2123C19.253 5.22668 19.1667 5.22668 19.023 5.2698L18.9942 5.28417C18.908 5.29854 18.7786 5.32729 18.7211 5.38478C18.7068 5.39916 18.678 5.44228 18.6636 5.47103C18.5918 5.57164 18.5487 5.64351 18.4768 5.64351ZM18.1606 5.37041C18.2037 5.37041 18.2324 5.41353 18.2612 5.45665C18.2756 5.4854 18.2899 5.49977 18.3043 5.51414C18.3187 5.52852 18.3187 5.52852 18.3187 5.54289C18.3331 5.57164 18.3474 5.58601 18.4624 5.58601C18.5055 5.58601 18.5487 5.51415 18.5774 5.45665C18.6062 5.41353 18.6205 5.37041 18.6493 5.35604C18.7211 5.29854 18.8505 5.2698 18.9511 5.24105L18.9799 5.22668C19.1236 5.18355 19.2242 5.18356 19.3248 5.16918C19.3679 5.16918 19.3967 5.16918 19.4398 5.15481C19.4398 5.15481 19.8135 5.11169 20.0148 5.25542C19.9716 5.16918 19.9141 5.09731 19.8566 5.02545C19.5835 4.75235 18.6636 4.49363 18.06 4.46488C17.9593 4.46488 17.8875 4.47926 17.8444 4.53675C17.7869 4.60862 17.8012 4.69486 17.8012 4.69486L17.8156 4.73798L17.7725 4.7236C17.0394 4.53675 16.4789 4.52238 16.2345 4.68048C16.1914 4.70923 16.1339 4.7811 16.1052 4.86734C16.1914 4.79547 16.3351 4.70923 16.5795 4.69486C16.9963 4.66611 17.1257 4.7236 17.4563 4.98233C17.7725 5.2698 18.0168 5.39916 18.1606 5.37041Z" fill="#282828"/>
<path d="M18.3895 5.3704C18.4844 5.3704 18.5614 5.29342 18.5614 5.19846C18.5614 5.10349 18.4844 5.02651 18.3895 5.02651C18.2945 5.02651 18.2175 5.10349 18.2175 5.19846C18.2175 5.29342 18.2945 5.3704 18.3895 5.3704Z" fill="#FFF0E3"/>
</svg>
