<svg width="150" height="150" viewBox="0 0 150 150" fill="" xmlns="http://www.w3.org/2000/svg">
<path d="M63.6101 110.622V150H63.4155L44.7768 140.081V102.478L63.6101 110.622Z" fill="#FFF0E3"/>
<path d="M131.146 49.7011L75.0104 79.5682L37.6915 59.7191V79.782L60.4671 91.8952L75.0104 99.6311L89.5495 91.8952L131.146 69.7639V129.285L150 119.236V39.6677L131.146 49.7011Z" fill="#FFF0E3"/>
<path d="M105.244 102.478V139.803L86.3899 149.836V110.622L105.244 102.478Z" fill="#FFF0E3"/>
<path d="M150 0V20.0628L131.146 30.0924L89.5702 52.2084L75.0103 59.9595L60.4505 52.2084L18.854 30.0924V126.289L0 116.255V0L18.854 10.0295L75.0103 39.912L131.146 10.0295L150 0Z" fill="#FFF0E3"/>
</svg>
